<?xml version="1.0" standalone="no"?>
<!DOCTYPE svg PUBLIC "-//W3C//DTD SVG 20010904//EN"
 "http://www.w3.org/TR/2001/REC-SVG-20010904/DTD/svg10.dtd">
<svg version="1.0" xmlns="http://www.w3.org/2000/svg"
 width="535.000000pt" height="193.000000pt" viewBox="0 0 535.000000 193.000000"
 preserveAspectRatio="xMidYMid meet">

<g transform="translate(0.000000,193.000000) scale(0.100000,-0.100000)"
fill="#000000" stroke="none">
<path d="M2950 1762 c-92 -25 -169 -71 -212 -127 -45 -60 -62 -116 -56 -198 7
-114 64 -163 253 -218 157 -45 186 -68 129 -105 -55 -37 -273 -6 -360 51 -20
13 -23 8 -79 -97 -64 -123 -66 -114 23 -148 170 -64 410 -65 547 -1 129 60
185 142 185 271 0 63 -4 83 -23 111 -35 52 -94 86 -197 114 -192 53 -216 69
-167 111 51 44 183 39 293 -10 l51 -23 52 105 c61 123 63 118 -49 153 -93 30
-299 36 -390 11z"/>
<path d="M570 1625 l0 -135 -35 0 -35 0 0 99 c0 55 -3 106 -6 115 -5 12 -21
16 -65 16 l-59 0 0 -115 0 -115 -29 0 c-37 0 -41 14 -41 154 0 94 -2 107 -16
102 -9 -3 -38 -6 -65 -6 l-49 0 0 -210 0 -210 271 0 272 0 -7 46 c-3 26 -6
125 -6 220 l0 174 -65 0 -65 0 0 -135z"/>
<path d="M995 1748 c-2 -7 -42 -203 -88 -435 l-84 -423 498 0 498 0 41 75 42
75 166 -2 167 -3 14 -72 13 -73 144 0 c100 0 144 3 144 11 0 10 -184 797 -196
842 -5 16 -19 17 -152 15 l-147 -3 -265 -417 c-146 -229 -268 -420 -272 -423
-3 -4 2 31 13 77 10 46 19 93 19 106 l0 22 -190 0 c-135 0 -190 3 -190 11 0
12 106 563 117 607 l5 22 -146 0 c-108 0 -148 -3 -151 -12z m1179 -394 c9 -51
16 -95 16 -98 0 -3 -36 -6 -80 -6 -44 0 -80 3 -80 6 0 17 114 204 120 197 4
-4 15 -49 24 -99z"/>
<path d="M3505 1738 c-16 -70 -35 -172 -35 -189 0 -18 8 -19 123 -19 l124 0
-58 -292 c-32 -161 -60 -305 -63 -320 l-5 -28 147 0 148 0 58 298 c32 163 60
307 63 320 5 21 9 22 133 22 l127 0 22 108 c11 59 21 110 21 115 0 4 -180 7
-400 7 l-400 0 -5 -22z"/>
<path d="M180 1140 l0 -90 95 0 95 0 0 -80 0 -80 -34 0 c-18 0 -61 -3 -95 -6
l-61 -7 0 -83 0 -84 265 0 265 0 0 90 0 90 -100 0 -101 0 3 83 3 82 98 3 97 3
0 84 0 85 -265 0 -265 0 0 -90z"/>
<path d="M1219 780 c-107 -18 -209 -91 -257 -185 -20 -39 -27 -69 -30 -137 -4
-80 -2 -93 23 -143 18 -37 40 -64 68 -83 71 -48 104 -57 212 -57 111 1 160 18
224 76 l34 31 -58 58 -58 59 -34 -29 c-56 -50 -139 -52 -186 -4 -33 33 -40 79
-22 141 35 118 161 158 245 78 l25 -24 64 49 c35 27 66 51 69 54 10 11 -29 56
-70 80 -41 23 -138 47 -182 45 -12 -1 -42 -5 -67 -9z"/>
<path d="M1635 758 c-2 -7 -27 -130 -55 -273 -28 -143 -54 -270 -57 -283 -5
-22 -4 -22 95 -22 l99 0 13 63 c6 34 16 83 22 110 l10 47 89 0 c71 0 89 -3 89
-14 0 -13 -21 -123 -35 -183 -5 -23 -4 -23 94 -23 l100 0 10 53 c6 28 33 161
60 295 l48 242 -98 0 c-94 0 -99 -1 -104 -22 -3 -13 -12 -56 -20 -97 -8 -40
-18 -77 -21 -82 -3 -5 -43 -9 -90 -9 -97 0 -94 -5 -69 110 23 107 29 100 -80
100 -68 0 -97 -4 -100 -12z"/>
<path d="M2324 488 c-98 -154 -183 -287 -187 -295 -6 -10 12 -13 97 -13 l104
0 31 55 32 56 112 -3 112 -3 9 -52 9 -53 99 0 c90 0 99 2 94 18 -2 9 -30 125
-61 257 -31 132 -60 257 -66 278 l-10 37 -97 0 -98 0 -180 -282z m262 -8 l7
-50 -58 0 -57 0 23 38 c12 20 31 52 42 71 19 32 21 33 28 13 5 -12 11 -44 15
-72z"/>
<path d="M2990 768 c0 -2 -25 -129 -55 -283 -30 -154 -55 -285 -55 -292 0 -10
25 -13 94 -13 106 0 96 -8 116 93 l11 57 83 0 c98 0 167 19 225 60 76 56 113
179 77 263 -17 43 -76 93 -123 106 -32 9 -373 16 -373 9z m288 -164 c30 -21
29 -68 -3 -99 -20 -21 -34 -25 -85 -25 -54 0 -61 2 -56 18 2 9 7 33 11 52 13
70 13 70 63 70 27 0 57 -7 70 -16z"/>
<path d="M3545 748 c-14 -64 -25 -114 -25 -120 0 -5 38 -8 85 -8 l86 0 -7 -37
c-3 -21 -22 -114 -40 -207 -19 -93 -34 -176 -34 -183 0 -11 20 -13 96 -11 l97
3 38 195 c21 107 41 205 44 218 5 21 11 22 90 22 84 0 85 0 91 28 3 15 10 43
15 62 5 19 9 41 9 48 0 9 -61 12 -270 12 l-270 0 -5 -22z"/>
<path d="M4090 498 c-29 -150 -56 -283 -58 -295 l-4 -23 244 0 245 0 11 64 c7
35 12 68 12 75 0 8 -44 11 -146 11 -129 0 -145 2 -140 16 3 9 6 27 6 40 l0 24
129 0 128 0 6 38 c4 20 9 52 13 70 l7 32 -122 0 c-113 0 -121 1 -121 19 0 50
3 51 151 51 136 0 139 0 144 23 14 63 25 113 25 120 0 4 -107 7 -238 7 l-237
0 -55 -272z"/>
<path d="M4710 768 c0 -2 -25 -129 -55 -283 -30 -154 -55 -285 -55 -292 0 -10
25 -13 94 -13 106 0 96 -8 116 93 11 55 13 58 38 55 22 -2 35 -17 67 -75 l40
-73 103 0 103 0 -32 58 c-18 31 -38 66 -46 77 -21 31 -16 41 32 69 131 77 141
281 17 354 -46 26 -51 27 -234 30 -104 2 -188 2 -188 0z m288 -164 c30 -21 29
-68 -3 -99 -20 -21 -34 -25 -85 -25 -54 0 -61 2 -56 18 2 9 7 33 11 52 13 70
13 70 63 70 27 0 57 -7 70 -16z"/>
<path d="M184 568 c3 -50 6 -160 6 -245 l0 -153 70 0 70 0 0 80 0 80 195 0
195 0 0 90 0 90 -200 0 -200 0 0 75 0 75 -71 0 -72 0 7 -92z"/>
</g>
</svg>
